Alfonzó - Alfonshow (1980)
TV Rip! (MTV1)

MTV videótár: http://videotar.mtv.hu/Cimkek/a/l/alfonshow.aspx
IMDB: http://hungarian.imdb.com/title/tt1226284/

Kép1: http://img339.imageshack.us/img339/498/alfonshow1.png
Kép2: http://img828.imageshack.us/img828/59/alfonshow2.png
Kép3: http://img98.imageshack.us/img98/5016/alfonshow3.png
Folder: http://img830.imageshack.us/img830/9991/alfonshowfolder.png
Alfonzó jelenetei közül egy félórás egyveleg.

Hossz: 27 perc

Rendezte: Molnár György

Szereplők:
Alfonzó, Bán Zoltán, Csorba István

Seed: 21-06 Hétvége 0-24 , Max 40-45 KB/s[/b]

Használható Trackerek:
 
http://tracker.prq.to/announce
 
http://tpb.tracker.prq.to:80/announce
 
http://www.torrent-downloads.to:5869/announce
 
http://trfkad.tracker.prq.to:80/announce
 
http://tracker.publicbits.com:80/announce

Technikai adatok:

General
Complete name                    : X:\Feltoltes\RaktĂˇr\Alfonshow\Alfonshow.avi
Format                           : AVI
Format/Info                      : Audio Video Interleave
File size                        : 338 MiB
Duration                         : 26mn 10s
Overall bit rate                 : 1 804 Kbps
Writing application              : Lavf52.47.0

Video
ID                               : 0
Format                           : MPEG-4 Visual
Format profile                   : Simple@L1
Format settings, BVOP            : No
Format settings, QPel            : No
Format settings, GMC             : No warppoints
Format settings, Matrix          : Default (H.263)
Codec ID                         : FMP4
Duration                         : 26mn 10s
Bit rate                         : 1 600 Kbps
Width                            : 640 pixels
Height                           : 480 pixels
Display aspect ratio             : 4:3
Frame rate                       : 25.000 fps
Color space                      : YUV
Chroma subsampling               : 4:2:0
Bit depth                        : 8 bits
Scan type                        : Progressive
Compression mode                 : Lossy
Bits/(Pixel*Frame)               : 0.208
Stream size                      : 300 MiB (89%)
Writing library                  : Lavc52.49.0

Audio
ID                               : 1
Format                           : MPEG Audio
Format version                   : Version 1
Format profile                   : Layer 3
Mode                             : Joint stereo
Mode extension                   : MS Stereo
Codec ID                         : 55
Codec ID/Hint                    : MP3
Duration                         : 26mn 10s
Bit rate mode                    : Constant
Bit rate                         : 192 Kbps
Channel(s)                       : 2 channels
Sampling rate                    : 44.1 KHz
Compression mode                 : Lossy
Stream size                      : 35.9 MiB (11%)
Alignment                        : Aligned on interleaves
Interleave, duration             : 26 ms (0.65 video frame)



